<svg width="22" height="16" viewBox="0 0 22 16" fill="none" xmlns="http://www.w3.org/2000/svg">
<path d="M10.9481 10.5403C7.49811 10.5403 4.58716 11.104 4.58716 13.2798C4.58716 15.4564 7.51692 16.0004 10.9481 16.0004C14.3981 16.0004 17.309 15.4366 17.309 13.2609C17.309 11.0842 14.3793 10.5403 10.9481 10.5403Z" fill="#959895"/>
<path opacity="0.4" d="M10.9481 8.46727C13.2842 8.46727 15.1574 6.58331 15.1574 4.23376C15.1574 1.88331 13.2842 0.000244141 10.9481 0.000244141C8.61201 0.000244141 6.73883 1.88331 6.73883 4.23376C6.73883 6.58331 8.61201 8.46727 10.9481 8.46727Z" fill="#959895"/>
<path opacity="0.4" d="M20.087 5.21947C20.6914 2.84201 18.9194 0.706787 16.663 0.706787C16.4177 0.706787 16.1831 0.733804 15.9538 0.779732C15.9234 0.786937 15.8894 0.802246 15.8715 0.829263C15.8509 0.863484 15.8661 0.909412 15.8885 0.939131C16.5663 1.89552 16.9558 3.05994 16.9558 4.30991C16.9558 5.50765 16.5985 6.62434 15.9718 7.55101C15.9073 7.64647 15.9646 7.77525 16.0783 7.79506C16.2359 7.82298 16.3971 7.83739 16.5618 7.84189C18.2049 7.88512 19.6796 6.82156 20.087 5.21947Z" fill="#959895"/>
<path d="M21.8084 10.8172C21.5075 10.1724 20.7813 9.73023 19.6773 9.5132C19.1562 9.38532 17.7459 9.20521 16.4342 9.22952C16.4145 9.23222 16.4037 9.24573 16.4019 9.25474C16.3992 9.26734 16.4046 9.28896 16.4306 9.30247C17.0368 9.60415 19.38 10.9163 19.0855 13.6837C19.0729 13.8034 19.1687 13.907 19.2878 13.889C19.8645 13.8061 21.3481 13.4855 21.8084 12.4868C22.0627 11.9591 22.0627 11.3458 21.8084 10.8172Z" fill="#959895"/>
<path opacity="0.4" d="M6.04392 0.779976C5.81559 0.733147 5.5801 0.707031 5.33476 0.707031C3.07834 0.707031 1.30634 2.84225 1.91163 5.21972C2.31815 6.82181 3.79287 7.88536 5.43594 7.84214C5.60069 7.83763 5.76276 7.82232 5.91946 7.79531C6.03317 7.7755 6.09048 7.64672 6.02601 7.55126C5.39923 6.62368 5.04196 5.5079 5.04196 4.31016C5.04196 3.05928 5.43236 1.89486 6.11018 0.939375C6.13167 0.909656 6.14778 0.863728 6.12629 0.829507C6.10839 0.80159 6.07526 0.787181 6.04392 0.779976Z" fill="#959895"/>
<path d="M2.32064 9.51294C1.21661 9.72998 0.491332 10.1722 0.190477 10.8169C-0.064713 11.3456 -0.064713 11.9589 0.190477 12.4875C0.650714 13.4853 2.1344 13.8068 2.71104 13.8887C2.83012 13.9068 2.92504 13.8041 2.9125 13.6834C2.61791 10.9169 4.96118 9.6048 5.56827 9.30311C5.59334 9.28871 5.59871 9.26799 5.59602 9.25448C5.59423 9.24548 5.58438 9.23197 5.56468 9.23017C4.25202 9.20495 2.84266 9.38506 2.32064 9.51294Z" fill="#959895"/>
</svg>
