<svg width="17" height="20" viewBox="0 0 17 20" fill="none" xmlns="http://www.w3.org/2000/svg">
<path opacity="0.4" d="M8.58558 20.0002C8.46175 20.0002 8.33792 19.9718 8.22617 19.914L4.62508 18.0499C3.60324 17.5203 2.80389 16.9261 2.17971 16.2338C0.813572 14.7198 0.0534863 12.7762 0.0414055 10.7602L-0.000877438 4.12451C-0.00591112 3.35867 0.488396 2.67127 1.22734 2.4124L7.83959 0.107032C8.23221 -0.033192 8.67014 -0.0351531 9.06982 0.100168L15.7072 2.32709C16.4502 2.57518 16.9526 3.25767 16.9566 4.02252L16.9989 10.6631C17.012 12.6762 16.2781 14.6276 14.9331 16.1583C14.3159 16.8604 13.5236 17.4635 12.5119 18.0028L8.94297 19.909C8.83223 19.9689 8.70941 19.9993 8.58558 20.0002Z" fill="#959895"/>
<path d="M7.81826 12.3212C7.62497 12.3221 7.43168 12.2525 7.28268 12.1094L5.36585 10.2658C5.06987 9.97951 5.06685 9.51471 5.35981 9.22642C5.65277 8.93714 6.13097 8.9342 6.42796 9.21955L7.80719 10.5453L11.1747 7.22504C11.4687 6.93576 11.9469 6.93282 12.2429 7.21817C12.5399 7.5045 12.5429 7.97028 12.2499 8.2576L8.35083 12.1025C8.20384 12.2476 8.01156 12.3202 7.81826 12.3212Z" fill="#959895"/>
</svg>
